<svg xmlns="http://www.w3.org/2000/svg" viewBox="0 0 90 60"><defs><clipPath id="usa"><polygon points="0,0 0,60 90,0"/></clipPath><clipPath id="uk"><polygon points="0,60 90,0 90,60"/></clipPath></defs><g clip-path="url(#usa)"><rect width="90" height="60" fill="#fff"/><path fill="#B22234" d="M0 0h90v4.62H0zm0 9.23h90v4.62H0zm0 9.23h90v4.62H0zm0 9.23h90v4.62H0zm0 9.23h90v4.62H0zm0 9.23h90v4.62H0zm0 9.23h90V60H0z"/><rect width="36" height="32.31" fill="#3C3B6E"/><g fill="#fff"><circle cx="4" cy="4" r="1.1"/><circle cx="12" cy="4" r="1.1"/><circle cx="20" cy="4" r="1.1"/><circle cx="28" cy="4" r="1.1"/><circle cx="8" cy="9" r="1.1"/><circle cx="16" cy="9" r="1.1"/><circle cx="24" cy="9" r="1.1"/><circle cx="32" cy="9" r="1.1"/><circle cx="4" cy="14" r="1.1"/><circle cx="12" cy="14" r="1.1"/><circle cx="20" cy="14" r="1.1"/><circle cx="28" cy="14" r="1.1"/><circle cx="8" cy="19" r="1.1"/><circle cx="16" cy="19" r="1.1"/><circle cx="24" cy="19" r="1.1"/><circle cx="32" cy="19" r="1.1"/><circle cx="4" cy="24" r="1.1"/><circle cx="12" cy="24" r="1.1"/><circle cx="20" cy="24" r="1.1"/><circle cx="28" cy="24" r="1.1"/><circle cx="8" cy="29" r="1.1"/><circle cx="16" cy="29" r="1.1"/><circle cx="24" cy="29" r="1.1"/><circle cx="32" cy="29" r="1.1"/></g></g><g clip-path="url(#uk)"><rect width="90" height="60" fill="#012169"/><path d="M0 0l90 60M90 0L0 60" stroke="#fff" stroke-width="10"/><path d="M0 0l90 60M90 0L0 60" stroke="#C8102E" stroke-width="6"/><path d="M45 0v60M0 30h90" stroke="#fff" stroke-width="15"/><path d="M45 0v60M0 30h90" stroke="#C8102E" stroke-width="9"/></g><path d="M0 60L90 0" stroke="#fff" stroke-width="3"/></svg>
