<svg version="1.1" id="Layer_1" xmlns="http://www.w3.org/2000/svg" xmlns:xlink="http://www.w3.org/1999/xlink" x="0px" y="0px"
	 width="100%" viewBox="0 0 2677 2010" enable-background="new 0 0 2677 2010" xml:space="preserve">
<path fill="#000000" opacity="1.000000" stroke="none"
	d="
M1480.000000,2012.000000
	C986.666687,2012.000000 494.333344,2012.000000 2.000000,2012.000000
	C2.000000,1342.000000 2.000000,672.000000 2.000000,2.000000
	C894.666687,2.000000 1787.333374,2.000000 2680.000000,2.000000
	C2680.000000,672.000000 2680.000000,1342.000000 2680.000000,2012.000000
	C2280.333252,2012.000000 1880.666626,2012.000000 1480.000000,2012.000000
M1545.348999,1426.336060
	C1584.579712,1426.336060 1623.810303,1426.336060 1663.236450,1426.336060
	C1663.236450,1138.945190 1663.236450,852.523010 1663.236450,566.317993
	C1626.081055,566.317993 1589.585815,566.317993 1552.064453,566.317993
	C1552.064453,796.961914 1552.064453,1026.953735 1552.064453,1256.945679
	C1551.533325,1257.059326 1551.002075,1257.172974 1550.470947,1257.286621
	C1408.014038,1026.850342 1265.557129,796.414124 1123.277466,566.264771
	C1102.588745,564.488892 992.677551,565.257080 985.356323,567.181885
	C985.356323,853.373901 985.356323,1139.571167 985.356323,1425.682373
	C1022.689880,1425.682373 1059.482422,1425.682373 1096.925537,1425.682373
	C1096.925537,1195.118652 1096.925537,965.346252 1096.925537,735.573914
	C1097.459229,735.376526 1097.993042,735.179138 1098.526733,734.981750
	C1243.285034,965.466187 1388.043335,1195.950562 1532.739502,1426.336060
	C1536.822388,1426.336060 1540.145386,1426.336060 1545.348999,1426.336060
M2093.000000,1426.331055
	C2127.663818,1426.331055 2162.328613,1426.187866 2196.991455,1426.381958
	C2219.691406,1426.509033 2242.280518,1425.479126 2264.739746,1422.038330
	C2309.037842,1415.251831 2350.656250,1401.150391 2388.521484,1376.790649
	C2437.774414,1345.104858 2473.382568,1301.381592 2499.900635,1249.806152
	C2538.019043,1175.670166 2555.861816,1096.323364 2559.525391,1013.497925
	C2561.281006,973.814941 2559.744141,934.242920 2554.257324,894.828918
	C2546.944824,842.299988 2532.591309,791.978394 2507.805908,744.937988
	C2476.979004,686.431824 2434.689697,638.585938 2376.192139,606.404785
	C2324.547363,577.993652 2268.678955,565.887573 2210.127930,565.758972
	C2095.136475,565.506287 1980.143921,565.670837 1865.151733,565.693726
	C1862.605225,565.694214 1860.058594,566.064819 1857.765625,566.243103
	C1857.765625,853.178711 1857.765625,1139.361206 1857.765625,1426.331055
	C1935.828613,1426.331055 2013.414307,1426.331055 2093.000000,1426.331055
M558.259827,1441.366943
	C563.456360,1440.220947 568.671631,1439.153320 573.846497,1437.916626
	C624.319763,1425.854126 669.827881,1404.267822 707.505615,1367.836914
	C748.241699,1328.448730 772.615662,1279.994995 786.071289,1225.516602
	C799.086914,1172.819946 803.986755,1119.162964 804.075378,1065.075562
	C804.343506,901.445374 804.206726,737.814636 804.227661,574.184082
	C804.227966,571.614014 804.227722,569.044006 804.227722,566.596924
	C788.466675,564.708496 693.140930,565.281555 685.901978,567.273743
	C685.901978,570.838806 685.901978,574.485291 685.901978,578.131775
	C685.901978,689.107300 685.909668,800.082764 685.899109,911.058289
	C685.892761,977.043640 686.092834,1043.030396 685.732910,1109.013794
	C685.561707,1140.397583 682.148499,1171.514038 673.940369,1201.927490
	C655.779053,1269.220581 614.312805,1314.639893 547.125427,1334.943726
	C501.450684,1348.746216 454.663910,1351.181030 407.701843,1343.366333
	C361.253571,1335.637085 322.366638,1314.150391 293.820801,1275.783081
	C277.338013,1253.629272 265.851776,1228.992798 258.042694,1202.608521
	C247.553696,1167.170044 244.145676,1130.811157 244.152603,1094.005005
	C244.185013,921.709717 244.165955,749.414368 244.165314,577.119080
	C244.165298,573.544006 244.165298,569.968994 244.165298,566.080933
	C204.386490,566.080933 165.566498,566.080933 125.834717,566.080933
	C125.834717,570.025208 125.834724,573.606018 125.834724,577.186829
	C125.834717,725.820679 125.878548,874.454590 125.805061,1023.088440
	C125.785782,1062.083130 125.979599,1101.048706 129.831131,1139.914307
	C133.648712,1178.437500 139.801056,1216.509277 152.143005,1253.300293
	C179.061691,1333.543823 230.180527,1391.688843 309.490631,1423.446899
	C355.536285,1441.884644 403.894104,1448.432617 453.137146,1449.571533
	C487.864899,1450.374878 522.369568,1447.872192 558.259827,1441.366943
z"/>
<path fill="#FDFDFD" opacity="1.000000" stroke="none"
	d="
M1544.408691,1426.336060
	C1540.145386,1426.336060 1536.822388,1426.336060 1532.739502,1426.336060
	C1388.043335,1195.950562 1243.285034,965.466187 1098.526733,734.981750
	C1097.993042,735.179138 1097.459229,735.376526 1096.925537,735.573914
	C1096.925537,965.346252 1096.925537,1195.118652 1096.925537,1425.682373
	C1059.482422,1425.682373 1022.689880,1425.682373 985.356323,1425.682373
	C985.356323,1139.571167 985.356323,853.373901 985.356323,567.181885
	C992.677551,565.257080 1102.588745,564.488892 1123.277466,566.264771
	C1265.557129,796.414124 1408.014038,1026.850342 1550.470947,1257.286621
	C1551.002075,1257.172974 1551.533325,1257.059326 1552.064453,1256.945679
	C1552.064453,1026.953735 1552.064453,796.961914 1552.064453,566.317993
	C1589.585815,566.317993 1626.081055,566.317993 1663.236450,566.317993
	C1663.236450,852.523010 1663.236450,1138.945190 1663.236450,1426.336060
	C1623.810303,1426.336060 1584.579712,1426.336060 1544.408691,1426.336060
z"/>
<path fill="#FEFEFE" opacity="1.000000" stroke="none"
	d="
M2092.000000,1426.331055
	C2013.414307,1426.331055 1935.828613,1426.331055 1857.765625,1426.331055
	C1857.765625,1139.361206 1857.765625,853.178711 1857.765625,566.243103
	C1860.058594,566.064819 1862.605225,565.694214 1865.151733,565.693726
	C1980.143921,565.670837 2095.136475,565.506287 2210.127930,565.758972
	C2268.678955,565.887573 2324.547363,577.993652 2376.192139,606.404785
	C2434.689697,638.585938 2476.979004,686.431824 2507.805908,744.937988
	C2532.591309,791.978394 2546.944824,842.299988 2554.257324,894.828918
	C2559.744141,934.242920 2561.281006,973.814941 2559.525391,1013.497925
	C2555.861816,1096.323364 2538.019043,1175.670166 2499.900635,1249.806152
	C2473.382568,1301.381592 2437.774414,1345.104858 2388.521484,1376.790649
	C2350.656250,1401.150391 2309.037842,1415.251831 2264.739746,1422.038330
	C2242.280518,1425.479126 2219.691406,1426.509033 2196.991455,1426.381958
	C2162.328613,1426.187866 2127.663818,1426.331055 2092.000000,1426.331055
M1974.710693,804.999573
	C1974.710693,978.542725 1974.710693,1152.085815 1974.710693,1326.334351
	C1978.411865,1326.334351 1981.031860,1326.334351 1983.651978,1326.334351
	C2047.307861,1326.333984 2110.964355,1326.501953 2174.619141,1326.222290
	C2191.919678,1326.146240 2209.272949,1325.360962 2226.500488,1323.790161
	C2274.664551,1319.398560 2316.292236,1300.462036 2350.784424,1266.286987
	C2373.558594,1243.722168 2390.859375,1217.421143 2403.762451,1188.202393
	C2425.406494,1139.189087 2435.917480,1087.382324 2439.472656,1034.315186
	C2443.138672,979.592773 2439.685303,925.078857 2427.766357,871.371948
	C2418.978027,831.773132 2405.011230,794.196655 2382.509033,760.106018
	C2359.800781,725.703491 2329.391113,700.829041 2291.198242,685.346680
	C2261.217773,673.193481 2229.883301,666.719116 2197.760498,666.344604
	C2125.116211,665.497559 2052.457520,665.876587 1979.804688,665.791870
	C1978.274292,665.790100 1976.743408,666.212280 1974.710693,666.510254
	C1974.710693,712.443115 1974.710693,757.721313 1974.710693,804.999573
z"/>
<path fill="#FEFEFE" opacity="1.000000" stroke="none"
	d="
M557.418945,1441.523438
	C522.369568,1447.872192 487.864899,1450.374878 453.137146,1449.571533
	C403.894104,1448.432617 355.536285,1441.884644 309.490631,1423.446899
	C230.180527,1391.688843 179.061691,1333.543823 152.143005,1253.300293
	C139.801056,1216.509277 133.648712,1178.437500 129.831131,1139.914307
	C125.979599,1101.048706 125.785782,1062.083130 125.805061,1023.088440
	C125.878548,874.454590 125.834717,725.820679 125.834724,577.186829
	C125.834724,573.606018 125.834717,570.025208 125.834717,566.080933
	C165.566498,566.080933 204.386490,566.080933 244.165298,566.080933
	C244.165298,569.968994 244.165298,573.544006 244.165314,577.119080
	C244.165955,749.414368 244.185013,921.709717 244.152603,1094.005005
	C244.145676,1130.811157 247.553696,1167.170044 258.042694,1202.608521
	C265.851776,1228.992798 277.338013,1253.629272 293.820801,1275.783081
	C322.366638,1314.150391 361.253571,1335.637085 407.701843,1343.366333
	C454.663910,1351.181030 501.450684,1348.746216 547.125427,1334.943726
	C614.312805,1314.639893 655.779053,1269.220581 673.940369,1201.927490
	C682.148499,1171.514038 685.561707,1140.397583 685.732910,1109.013794
	C686.092834,1043.030396 685.892761,977.043640 685.899109,911.058289
	C685.909668,800.082764 685.901978,689.107300 685.901978,578.131775
	C685.901978,574.485291 685.901978,570.838806 685.901978,567.273743
	C693.140930,565.281555 788.466675,564.708496 804.227722,566.596924
	C804.227722,569.044006 804.227966,571.614014 804.227661,574.184082
	C804.206726,737.814636 804.343506,901.445374 804.075378,1065.075562
	C803.986755,1119.162964 799.086914,1172.819946 786.071289,1225.516602
	C772.615662,1279.994995 748.241699,1328.448730 707.505615,1367.836914
	C669.827881,1404.267822 624.319763,1425.854126 573.846497,1437.916626
	C568.671631,1439.153320 563.456360,1440.220947 557.418945,1441.523438
z"/>
<path fill="#010101" opacity="1.000000" stroke="none"
	d="
M1974.710693,803.999512
	C1974.710693,757.721313 1974.710693,712.443115 1974.710693,666.510254
	C1976.743408,666.212280 1978.274292,665.790100 1979.804688,665.791870
	C2052.457520,665.876587 2125.116211,665.497559 2197.760498,666.344604
	C2229.883301,666.719116 2261.217773,673.193481 2291.198242,685.346680
	C2329.391113,700.829041 2359.800781,725.703491 2382.509033,760.106018
	C2405.011230,794.196655 2418.978027,831.773132 2427.766357,871.371948
	C2439.685303,925.078857 2443.138672,979.592773 2439.472656,1034.315186
	C2435.917480,1087.382324 2425.406494,1139.189087 2403.762451,1188.202393
	C2390.859375,1217.421143 2373.558594,1243.722168 2350.784424,1266.286987
	C2316.292236,1300.462036 2274.664551,1319.398560 2226.500488,1323.790161
	C2209.272949,1325.360962 2191.919678,1326.146240 2174.619141,1326.222290
	C2110.964355,1326.501953 2047.307861,1326.333984 1983.651978,1326.334351
	C1981.031860,1326.334351 1978.411865,1326.334351 1974.710693,1326.334351
	C1974.710693,1152.085815 1974.710693,978.542725 1974.710693,803.999512
z"/>
</svg>